<svg xmlns="http://www.w3.org/2000/svg" viewBox="0 0 512 512"><rect width="512" height="512" rx="112" fill="#07111a"/><defs><linearGradient id="g" x1="0" y1="0" x2="1" y2="1"><stop stop-color="#74c0ff"/><stop offset="1" stop-color="#2e7fc2"/></linearGradient></defs><rect x="74" y="74" width="364" height="364" rx="92" fill="url(#g)"/><path d="M342 176c-22-21-52-32-85-32-65 0-112 35-112 89 0 48 36 69 93 82 46 11 62 20 62 39 0 20-19 33-49 33-34 0-64-12-90-36l-36 45c31 31 74 47 124 47 70 0 118-35 118-92 0-51-35-73-99-88-41-10-56-18-56-35 0-19 18-30 46-30 27 0 51 9 72 27z" fill="#fff"/></svg>